<svg width="199" height="40" viewBox="0 0 199 40" fill="none" xmlns="http://www.w3.org/2000/svg">
<path fill-rule="evenodd" clip-rule="evenodd" d="M5.9329 5.79915C9.6688 2.02463 14.5032 0 19.997 0C25.4907 0 30.4352 2.02463 34.2806 5.85397C38.0715 9.62912 40.049 14.553 40.049 19.969C40.049 25.4399 38.0715 30.309 34.3356 33.9745C30.3802 37.8586 25.2705 39.9375 19.997 39.9375C14.7234 39.9375 9.72385 37.8586 5.87848 34.0293C2.03247 30.1993 0 25.2754 0 19.969C0 14.7169 2.08752 9.68395 5.9329 5.79915ZM31.6989 8.42556C28.5673 5.30701 24.5567 3.61132 20.052 3.61132C15.5473 3.61132 11.5912 5.25282 8.51462 8.37074C5.38302 11.5441 3.62517 15.6469 3.62517 19.969C3.62517 24.2363 5.38302 28.3392 8.51462 31.4583C11.6456 34.5769 15.7112 36.2726 20.0514 36.2726C24.3365 36.2726 28.5116 34.5763 31.7533 31.4035C34.8298 28.394 36.4232 24.455 36.4232 19.969C36.4232 15.5379 34.7748 11.4893 31.6989 8.42556ZM19.7932 16.6507C18.6605 14.594 16.728 13.7754 14.4849 13.7754C11.2197 13.7754 8.62093 16.0754 8.62093 19.969C8.62093 23.9282 11.0641 26.1627 14.5962 26.1627C16.8622 26.1627 18.794 24.9238 19.8603 23.0441L17.3722 21.7832C16.8166 23.1103 15.9731 23.5085 14.9069 23.5085C13.063 23.5085 12.2195 21.9823 12.2195 19.9697C12.2195 17.957 12.9301 16.4302 14.9069 16.4302C15.4397 16.4302 16.5059 16.7182 17.128 18.0446L19.7932 16.6507ZM26.0532 13.7754C28.2964 13.7754 30.2283 14.594 31.3616 16.6507L28.6963 18.0446C28.0737 16.7182 27.0075 16.4302 26.4747 16.4302C24.4979 16.4302 23.7866 17.957 23.7866 19.9697C23.7866 21.9823 24.6314 23.5085 26.4747 23.5085C27.5409 23.5085 28.385 23.1103 28.94 21.7832L31.428 23.0441C30.3618 24.9238 28.4299 26.1627 26.164 26.1627C22.6325 26.1627 20.1887 23.9282 20.1887 19.969C20.1887 16.0754 22.7881 13.7754 26.0532 13.7754Z" fill="black"/>
<path d="M60.694 25.196L56.75 23.156C56.546 23.734 56.41 23.938 56.24 24.21C55.934 24.652 55.016 25.774 53.316 25.808C52.16 25.808 51.412 25.23 51.072 24.958C49.882 23.972 49.372 22 49.372 20.47C49.372 20.13 49.44 17.104 51.242 15.744C52.024 15.166 52.772 15.132 53.146 15.132C54.744 15.132 55.73 16.22 56.036 16.594C56.308 16.968 56.58 17.512 56.614 17.614L60.49 15.404C60.15 14.86 60.014 14.656 59.81 14.384C57.43 11.392 54.302 11.12 52.908 11.12C51.276 11.12 46.89 11.494 44.884 16.152C44.034 18.124 44 19.824 44 20.64C44 24.176 45.326 27.338 48.658 28.97C50.46 29.854 52.024 29.956 52.806 29.956C54.098 29.956 57.124 29.65 59.47 26.896C59.912 26.386 60.32 25.774 60.694 25.196Z" fill="black"/>
<path d="M79.2941 21.592C79.2601 20.742 79.3281 17.07 77.3221 14.316C75.1121 11.222 71.5761 11.086 70.3861 11.086C66.5101 11.086 64.6401 12.684 63.5521 13.908C61.3421 16.458 61.2741 19.756 61.2741 20.844C61.2741 24.856 63.1101 28.324 67.0541 29.548C68.4481 29.99 69.7061 30.024 70.2501 30.024C71.5761 30.024 74.9761 29.786 77.5941 26.896C78.0021 26.42 78.3761 25.944 79.0901 24.89L75.1461 22.85C74.9081 23.292 74.1261 25.094 72.3581 25.706C71.6441 25.978 70.9641 26.012 70.6581 26.012C68.5501 26.012 67.0881 24.72 66.6801 22.646C66.5781 22.17 66.6121 21.762 66.6121 21.592H79.2941ZM73.8881 18.328H66.6461C66.7821 17.648 66.9181 17.274 67.0541 16.968C67.3261 16.356 68.2781 14.826 70.3521 14.826C70.6581 14.826 71.2361 14.826 71.9501 15.166C73.7181 15.948 73.8201 17.75 73.8881 18.328Z" fill="black"/>
<path d="M91.9764 16.05V11.426C91.3304 11.494 90.3444 11.562 88.9164 12.14C87.7604 12.616 87.2844 13.092 86.8424 13.466V11.63H81.7764V29.378H86.9784V19.382C86.9784 18.056 87.2164 17.172 88.6104 16.696C89.2564 16.458 90.0724 16.356 90.2424 16.322L91.9764 16.05Z" fill="black"/>
<path d="M103.332 15.268V12.072H99.8644V6.496H94.6964V12.038H92.1124V15.234H94.6964V23.768C94.6964 25.4 94.6284 27.202 95.9884 28.392C97.1784 29.48 98.7424 29.446 99.2184 29.48C99.5584 29.514 99.9324 29.514 100.306 29.514C101.496 29.514 102.72 29.31 103.06 29.242V25.196C102.448 25.196 101.836 25.23 101.224 25.23C101.122 25.23 100.306 25.23 100 24.652C99.8304 24.346 99.8644 23.938 99.8644 23.224V15.268H103.332Z" fill="black"/>
<path d="M110.796 9.42V5.374H105.594V9.42H110.796ZM110.796 29.378V11.63H105.594V29.378H110.796Z" fill="black"/>
<path d="M123.954 15.234V12.038H120.452C120.452 11.596 120.418 10.542 120.554 10.134C120.588 9.964 120.758 9.556 121.2 9.386C121.608 9.216 122.594 9.25 123.75 9.25V5.306C123.546 5.272 121.846 5 120.622 5C118.956 5 116.746 5.51 115.862 7.176C115.284 8.23 115.284 9.556 115.284 9.828V12.038H112.496V15.234H115.284V29.378H120.486V15.234H123.954Z" fill="black"/>
<path d="M130.703 9.42V5.374H125.501V9.42H130.703ZM130.703 29.378V11.63H125.501V29.378H130.703Z" fill="black"/>
<path d="M149.879 25.196L145.935 23.156C145.731 23.734 145.595 23.938 145.425 24.21C145.119 24.652 144.201 25.774 142.501 25.808C141.345 25.808 140.597 25.23 140.257 24.958C139.067 23.972 138.557 22 138.557 20.47C138.557 20.13 138.625 17.104 140.427 15.744C141.209 15.166 141.957 15.132 142.331 15.132C143.929 15.132 144.915 16.22 145.221 16.594C145.493 16.968 145.765 17.512 145.799 17.614L149.675 15.404C149.335 14.86 149.199 14.656 148.995 14.384C146.615 11.392 143.487 11.12 142.093 11.12C140.461 11.12 136.075 11.494 134.069 16.152C133.219 18.124 133.185 19.824 133.185 20.64C133.185 24.176 134.511 27.338 137.843 28.97C139.645 29.854 141.209 29.956 141.991 29.956C143.283 29.956 146.309 29.65 148.655 26.896C149.097 26.386 149.505 25.774 149.879 25.196Z" fill="black"/>
<path d="M167.255 29.378C166.813 28.732 166.745 28.154 166.745 26.624V16.254C166.745 15.234 166.575 14.758 166.371 14.282C165.181 11.732 161.815 11.154 159.333 11.154C158.925 11.154 158.075 11.154 157.055 11.29C156.443 11.392 154.505 11.664 153.043 13.092C151.717 14.418 151.683 15.948 151.615 16.662H156.851C156.919 16.288 157.021 16.016 157.089 15.88C157.361 15.302 158.075 14.588 159.605 14.588C161.509 14.588 161.611 16.118 161.611 16.73V17.716C158.245 18.328 155.831 18.804 154.505 19.382C153.723 19.722 150.867 21.252 150.867 24.448C150.867 25.298 151.071 26.182 151.445 26.93C152.023 28.12 153.485 29.854 156.681 29.854C158.891 29.854 160.387 28.97 161.033 28.528C161.407 28.29 161.747 28.052 162.121 27.78V29.378H167.255ZM161.611 20.878C161.611 22.544 161.543 24.21 160.013 25.298C159.775 25.468 158.959 26.012 158.007 26.012C156.919 26.012 156.409 25.366 156.205 25.026C156.035 24.686 156.001 24.312 156.001 24.21C156.001 23.53 156.341 22.782 157.633 22.238C157.837 22.136 158.041 22.068 158.245 22L161.611 20.878Z" fill="black"/>
<path d="M179.767 15.268V12.072H176.299V6.496H171.131V12.038H168.547V15.234H171.131V23.768C171.131 25.4 171.063 27.202 172.423 28.392C173.613 29.48 175.177 29.446 175.653 29.48C175.993 29.514 176.367 29.514 176.741 29.514C177.931 29.514 179.155 29.31 179.495 29.242V25.196C178.883 25.196 178.271 25.23 177.659 25.23C177.557 25.23 176.741 25.23 176.435 24.652C176.265 24.346 176.299 23.938 176.299 23.224V15.268H179.767Z" fill="black"/>
<path d="M198.281 21.592C198.247 20.742 198.315 17.07 196.309 14.316C194.099 11.222 190.563 11.086 189.373 11.086C185.497 11.086 183.627 12.684 182.539 13.908C180.329 16.458 180.261 19.756 180.261 20.844C180.261 24.856 182.097 28.324 186.041 29.548C187.435 29.99 188.693 30.024 189.237 30.024C190.563 30.024 193.963 29.786 196.581 26.896C196.989 26.42 197.363 25.944 198.077 24.89L194.133 22.85C193.895 23.292 193.113 25.094 191.345 25.706C190.631 25.978 189.951 26.012 189.645 26.012C187.537 26.012 186.075 24.72 185.667 22.646C185.565 22.17 185.599 21.762 185.599 21.592H198.281ZM192.875 18.328H185.633C185.769 17.648 185.905 17.274 186.041 16.968C186.313 16.356 187.265 14.826 189.339 14.826C189.645 14.826 190.223 14.826 190.937 15.166C192.705 15.948 192.807 17.75 192.875 18.328Z" fill="black"/>
</svg>
